# xmcd CD database file
#
# Track frame offsets:
#	150
#	20237
#	45972
#	72287
#	111342
#	131562
#	154247
#	169117
#	198082
#	242257
#
# Disc length: 3439 seconds
#
# Revision: 0
# Processed by: cddbd v1.5.1PL0 Copyright (c) Steve Scherf et al.
# Submitted via: CDex 1.51
#
DISCID=7f0d6d0a
DTITLE=姜建華 - マニフィーク・シノワ
DYEAR=2001
DGENRE=Chainese
TTITLE0=パリは燃えているか
TTITLE1=エナジー・フロウ
TTITLE2=永訣の朝
TTITLE3=Habanera and Danse Boheme From The opera"Carmen"
TTITLE4=シルクロードより
TTITLE5=Csardas
TTITLE6=私のお父さん
TTITLE7=The Last Emperor
TTITLE8=Zigeunerweisen
TTITLE9=Intermezzo Sinfonico From The opera"Cavalleiria Rusticana"
EXTD=YEAR: 2001
EXTT0=
EXTT1=
EXTT2=
EXTT3=
EXTT4=
EXTT5=
EXTT6=
EXTT7=
EXTT8=
EXTT9=
PLAYORDER=
